<?xml version="1.0" standalone="no"?>
<!DOCTYPE svg PUBLIC "-//W3C//DTD SVG 20010904//EN"
 "http://www.w3.org/TR/2001/REC-SVG-20010904/DTD/svg10.dtd">
<svg version="1.0" xmlns="http://www.w3.org/2000/svg"
 width="344.000000pt" height="344.000000pt" viewBox="0 0 344.000000 344.000000"
 preserveAspectRatio="xMidYMid meet">
<metadata>
Created by potrace 1.14, written by Peter Selinger 2001-2017
</metadata>
<g transform="translate(0.000000,344.000000) scale(0.100000,-0.100000)"
fill="#000000" stroke="none">
<path d="M1657 3127 c-56 -32 -361 -219 -437 -266 -36 -22 -86 -52 -111 -66
l-46 -26 0 -387 c0 -366 -1 -387 -19 -400 -11 -7 -149 -92 -309 -189 -159 -96
-294 -180 -300 -187 -10 -13 -14 -771 -5 -779 23 -18 627 -380 635 -380 6 0
143 81 305 180 162 99 304 185 316 191 17 9 32 3 97 -39 43 -27 79 -49 81 -49
3 0 42 -23 88 -52 46 -28 151 -93 235 -144 l152 -92 298 180 c164 99 308 187
321 194 l22 14 0 388 0 388 -58 35 c-31 19 -175 106 -320 193 l-262 159 0 388
0 387 -315 191 c-173 105 -318 191 -322 191 -4 0 -25 -10 -46 -23z"/>
<path d="M465 3112 c-37 -23 -50 -39 -62 -77 -24 -76 41 -165 120 -165 54 0
86 17 114 59 76 112 -57 253 -172 183z"/>
<path d="M2620 2993 c-64 -26 -45 -123 24 -123 78 0 92 109 16 124 -14 3 -32
2 -40 -1z"/>
<path d="M2954 2657 c-83 -27 -121 -109 -99 -212 6 -27 54 -77 88 -92 64 -29
151 -7 198 50 19 23 40 92 34 111 -2 6 -6 23 -9 38 -8 38 -52 86 -94 103 -37
16 -72 17 -118 2z"/>
<path d="M494 2592 c-16 -11 -33 -46 -30 -65 3 -26 37 -57 61 -57 57 0 89 74
49 114 -16 17 -61 21 -80 8z"/>
<path d="M3013 610 c-46 -18 -42 -101 4 -118 69 -24 125 56 73 103 -25 22 -47
26 -77 15z"/>
<path d="M629 476 c-28 -21 -37 -47 -27 -78 27 -76 142 -41 122 37 -10 39 -66
63 -95 41z"/>
<path d="M1775 482 c-55 -11 -73 -72 -32 -109 26 -24 59 -23 87 2 45 41 5 120
-55 107z"/>
<path d="M290 402 c-44 -35 -17 -112 39 -112 34 0 48 10 60 43 13 32 2 60 -29
77 -27 14 -45 12 -70 -8z"/>
</g>
</svg>
